<?xml version="1.0" encoding="utf-8"?>
<!-- Generator: Adobe Illustrator 24.1.2, SVG Export Plug-In . SVG Version: 6.00 Build 0)  -->
<svg version="1.1" id="Capa_1" xmlns="http://www.w3.org/2000/svg" xmlns:xlink="http://www.w3.org/1999/xlink" x="0px" y="0px"
	 viewBox="0 0 50 50" style="enable-background:new 0 0 50 50;" xml:space="preserve">
<path d="M25,6.84c10.03,0,18.16,8.13,18.16,18.16S35.03,43.16,25,43.16S6.84,35.03,6.84,25S14.97,6.84,25,6.84z M35.13,24.06h-9.19
	v-9.18c0-0.52-0.42-0.94-0.94-0.94s-0.94,0.42-0.94,0.94v9.18h-9.19c-0.52,0-0.94,0.42-0.94,0.94c0,0.52,0.42,0.94,0.94,0.94h9.19
	v9.19c0,0.52,0.42,0.94,0.94,0.94s0.94-0.42,0.94-0.94v-9.19h9.19c0.52,0,0.94-0.42,0.94-0.94C36.07,24.48,35.65,24.06,35.13,24.06z
	"/>
</svg>
