<?xml version="1.0" encoding="utf-8"?>
<!-- Generator: Adobe Illustrator 24.1.2, SVG Export Plug-In . SVG Version: 6.00 Build 0)  -->
<svg version="1.1" id="Capa_1" xmlns="http://www.w3.org/2000/svg" xmlns:xlink="http://www.w3.org/1999/xlink" x="0px" y="0px"
	 viewBox="0 0 50 50" style="enable-background:new 0 0 50 50;" xml:space="preserve">
<path d="M25,43.16C14.97,43.16,6.84,35.03,6.84,25S14.97,6.84,25,6.84S43.16,14.97,43.16,25S35.03,43.16,25,43.16z M26.06,12.82
	h-2.12c-0.43,0-0.78,0.35-0.78,0.78v14.97c0,0.43,0.35,0.78,0.78,0.78h2.12c0.43,0,0.78-0.35,0.78-0.78V13.6
	C26.84,13.17,26.49,12.82,26.06,12.82z M25.02,33.06c-1.03,0-1.86,0.86-1.86,1.86c0,1.03,0.83,1.84,1.86,1.84
	c0.98,0,1.81-0.81,1.81-1.84C26.84,33.92,26.01,33.06,25.02,33.06z"/>
</svg>
