<?xml version="1.0" encoding="utf-8"?>
<!-- Generator: Adobe Illustrator 24.1.2, SVG Export Plug-In . SVG Version: 6.00 Build 0)  -->
<svg version="1.1" id="Capa_1" xmlns="http://www.w3.org/2000/svg" xmlns:xlink="http://www.w3.org/1999/xlink" x="0px" y="0px"
	 viewBox="0 0 50 50" style="enable-background:new 0 0 50 50;" xml:space="preserve">
<g>
	<path d="M25,43.33C14.89,43.33,6.67,35.11,6.67,25S14.89,6.67,25,6.67c10.11,0,18.33,8.22,18.33,18.33S35.11,43.33,25,43.33z
		 M25,8.03C15.64,8.03,8.03,15.64,8.03,25S15.64,41.97,25,41.97c9.36,0,16.97-7.61,16.97-16.97S34.36,8.03,25,8.03z"/>
	<g>
		<g>
			<path d="M26.24,17.27v10.07c0,0.29-0.24,0.53-0.53,0.53h-1.42c-0.29,0-0.53-0.24-0.53-0.53V17.27c0-0.29,0.24-0.53,0.53-0.53
				h1.42C26,16.75,26.24,16.99,26.24,17.27z"/>
			<path d="M26.24,31.61c0,0.69-0.56,1.24-1.22,1.24c-0.69,0-1.25-0.54-1.25-1.24c0-0.68,0.56-1.25,1.25-1.25
				C25.68,30.36,26.24,30.93,26.24,31.61z"/>
		</g>
	</g>
</g>
</svg>
