<?xml version="1.0" encoding="utf-8"?>
<!-- Generator: Adobe Illustrator 24.1.2, SVG Export Plug-In . SVG Version: 6.00 Build 0)  -->
<svg version="1.1" id="Capa_1" xmlns="http://www.w3.org/2000/svg" xmlns:xlink="http://www.w3.org/1999/xlink" x="0px" y="0px"
	 viewBox="0 0 50 50" style="enable-background:new 0 0 50 50;" xml:space="preserve">
<path d="M43.16,9.74v30.52c0,1.6-1.3,2.9-2.9,2.9H9.74c-1.6,0-2.9-1.3-2.9-2.9V9.74c0-1.6,1.3-2.9,2.9-2.9h30.52
	C41.86,6.84,43.16,8.14,43.16,9.74z M16.29,23.73c0.69,0.69,1.8,0.69,2.49,0l4.47-4.5v15.83c0,0.98,0.79,1.77,1.76,1.77
	c0.97,0,1.76-0.79,1.76-1.77V19.22l4.46,4.5c0.69,0.69,1.8,0.69,2.49,0c0.69-0.69,0.69-1.82,0-2.51l-7.47-7.52
	c-0.04-0.04-0.08-0.08-0.13-0.12c-0.05-0.04-0.1-0.08-0.15-0.11c-0.05-0.03-0.1-0.06-0.15-0.09c-0.24-0.13-0.52-0.2-0.81-0.2
	c-0.12,0-0.24,0.01-0.35,0.04c-0.06,0.01-0.11,0.03-0.17,0.04c-0.28,0.08-0.52,0.24-0.72,0.44l-7.47,7.52
	C15.6,21.91,15.6,23.03,16.29,23.73z"/>
</svg>
