<?xml version="1.0" encoding="utf-8"?>
<!-- Generator: Adobe Illustrator 24.1.2, SVG Export Plug-In . SVG Version: 6.00 Build 0)  -->
<svg version="1.1" id="Capa_1" xmlns="http://www.w3.org/2000/svg" xmlns:xlink="http://www.w3.org/1999/xlink" x="0px" y="0px"
	 viewBox="0 0 50 50" style="enable-background:new 0 0 50 50;" xml:space="preserve">
<g>
	<path d="M25,43.16C14.99,43.16,6.84,35.01,6.84,25S14.99,6.84,25,6.84c10.01,0,18.16,8.15,18.16,18.16S35.01,43.16,25,43.16z
		 M25,8.19C15.73,8.19,8.19,15.73,8.19,25S15.73,41.81,25,41.81c9.27,0,16.81-7.54,16.81-16.81S34.27,8.19,25,8.19z"/>
	<g>
		<path d="M31.51,21.85h-7.96c-0.37,0-0.67-0.3-0.67-0.67c0-0.37,0.3-0.67,0.67-0.67h7.96c0.37,0,0.67,0.3,0.67,0.67
			C32.18,21.55,31.88,21.85,31.51,21.85z"/>
		<path d="M31.51,25.67h-7.96c-0.37,0-0.67-0.3-0.67-0.67s0.3-0.67,0.67-0.67h7.96c0.37,0,0.67,0.3,0.67,0.67
			S31.88,25.67,31.51,25.67z"/>
		<path d="M31.51,29.49h-7.96c-0.37,0-0.67-0.3-0.67-0.67c0-0.37,0.3-0.67,0.67-0.67h7.96c0.37,0,0.67,0.3,0.67,0.67
			C32.18,29.19,31.88,29.49,31.51,29.49z"/>
		<path d="M19.75,22.89c-0.94,0-1.71-0.77-1.71-1.71c0-0.94,0.77-1.71,1.71-1.71c0.94,0,1.71,0.77,1.71,1.71
			C21.46,22.12,20.69,22.89,19.75,22.89z M19.75,20.37c-0.45,0-0.81,0.36-0.81,0.81c0,0.45,0.36,0.81,0.81,0.81
			c0.45,0,0.81-0.36,0.81-0.81C20.56,20.73,20.2,20.37,19.75,20.37z"/>
		<path d="M19.75,30.53c-0.94,0-1.71-0.77-1.71-1.71s0.77-1.71,1.71-1.71c0.94,0,1.71,0.77,1.71,1.71S20.69,30.53,19.75,30.53z
			 M19.75,28.01c-0.45,0-0.81,0.36-0.81,0.81s0.36,0.81,0.81,0.81c0.45,0,0.81-0.36,0.81-0.81S20.2,28.01,19.75,28.01z"/>
		<path d="M19.75,26.71c-0.94,0-1.71-0.77-1.71-1.71c0-0.94,0.77-1.71,1.71-1.71c0.94,0,1.71,0.77,1.71,1.71
			C21.46,25.94,20.69,26.71,19.75,26.71z M19.75,24.19c-0.45,0-0.81,0.36-0.81,0.81c0,0.45,0.36,0.81,0.81,0.81
			c0.45,0,0.81-0.36,0.81-0.81C20.56,24.55,20.2,24.19,19.75,24.19z"/>
	</g>
</g>
</svg>
