<?xml version="1.0" encoding="utf-8"?>
<!-- Generator: Adobe Illustrator 24.1.2, SVG Export Plug-In . SVG Version: 6.00 Build 0)  -->
<svg version="1.1" id="Capa_1" xmlns="http://www.w3.org/2000/svg" xmlns:xlink="http://www.w3.org/1999/xlink" x="0px" y="0px"
	 viewBox="0 0 50 50" style="enable-background:new 0 0 50 50;" xml:space="preserve">
<g>
	<path d="M25,44.6c-0.79,0-1.49-0.41-1.88-1.09c-3.3-5.74-10.99-19.7-10.99-25.25C12.13,11.17,17.91,5.4,25,5.4
		s12.87,5.77,12.87,12.87c0,5.54-7.68,19.5-10.99,25.25C26.49,44.19,25.79,44.6,25,44.6z M25,7.63c-5.86,0-10.63,4.77-10.63,10.63
		c0,4.09,5.52,15.15,10.69,24.13c5.05-8.99,10.58-20.04,10.58-24.13C35.63,12.4,30.86,7.63,25,7.63z M24.98,24.47
		c-1.65,0-3.23-0.63-4.46-1.86c-1.95-1.95-2.41-4.79-1.19-7.42c0.56-1.2,1.53-2.17,2.73-2.73c2.62-1.22,5.47-0.77,7.42,1.18
		c1.95,1.95,2.41,4.8,1.19,7.42c-0.56,1.2-1.53,2.17-2.73,2.73l0,0C26.96,24.24,25.95,24.47,24.98,24.47z M24.99,14.02
		c-0.62,0-1.29,0.14-1.99,0.46c-0.73,0.34-1.31,0.92-1.65,1.65c-0.97,2.09-0.25,3.9,0.74,4.89c0.99,1,2.8,1.71,4.89,0.74l0,0
		c0.73-0.34,1.31-0.93,1.65-1.65c0.97-2.09,0.26-3.9-0.74-4.89C27.24,14.56,26.22,14.02,24.99,14.02z"/>
</g>
</svg>
