<?xml version="1.0" encoding="utf-8"?>
<!-- Generator: Adobe Illustrator 24.1.2, SVG Export Plug-In . SVG Version: 6.00 Build 0)  -->
<svg version="1.1" id="Capa_1" xmlns="http://www.w3.org/2000/svg" xmlns:xlink="http://www.w3.org/1999/xlink" x="0px" y="0px"
	 viewBox="0 0 50 50" style="enable-background:new 0 0 50 50;" xml:space="preserve">
<g>
	<path d="M43.62,33.37H6.38v-0.84c0-10.27,8.35-18.62,18.62-18.62s18.62,8.35,18.62,18.62V33.37z M8.08,31.7h33.85
		C41.48,22.74,34.06,15.59,25,15.59S8.51,22.74,8.08,31.7z"/>
	<path d="M28.19,12.8h-6.38v-0.56c0-1.76,1.43-3.19,3.19-3.19c1.76,0,3.19,1.43,3.19,3.19V12.8z M23.01,11.68h3.99
		c-0.24-0.87-1.05-1.51-2-1.51C24.05,10.17,23.25,10.81,23.01,11.68z"/>
	<path d="M44.32,40.95H5.68c-1.65,0-2.99-1.34-2.99-2.99c0-1.65,1.34-2.99,2.99-2.99h38.65c1.65,0,2.99,1.34,2.99,2.99
		C47.31,39.61,45.97,40.95,44.32,40.95z M5.68,36.65c-0.72,0-1.31,0.59-1.31,1.31c0,0.72,0.59,1.31,1.31,1.31h38.65
		c0.72,0,1.31-0.59,1.31-1.31c0-0.72-0.59-1.31-1.31-1.31H5.68z"/>
</g>
</svg>
