<?xml version="1.0" encoding="utf-8"?>
<!-- Generator: Adobe Illustrator 24.1.2, SVG Export Plug-In . SVG Version: 6.00 Build 0)  -->
<svg version="1.1" id="Capa_1" xmlns="http://www.w3.org/2000/svg" xmlns:xlink="http://www.w3.org/1999/xlink" x="0px" y="0px"
	 viewBox="0 0 50 50" style="enable-background:new 0 0 50 50;" xml:space="preserve">
<g>
	<g>
		<path d="M16.07,20.5c0-0.57,0.11-1.09,0.32-1.58c0.22-0.49,0.51-0.92,0.87-1.29c0.37-0.37,0.8-0.66,1.29-0.87
			c0.49-0.21,1.02-0.32,1.58-0.32c0.57,0,1.09,0.11,1.58,0.32c0.49,0.21,0.92,0.51,1.29,0.87c0.37,0.37,0.66,0.8,0.87,1.29
			c0.21,0.49,0.32,1.02,0.32,1.58s-0.11,1.09-0.32,1.58c-0.21,0.49-0.5,0.92-0.87,1.29c-0.37,0.37-0.79,0.66-1.29,0.87
			c-0.49,0.21-1.02,0.32-1.58,0.32c-0.57,0-1.1-0.11-1.58-0.32c-0.49-0.21-0.92-0.5-1.29-0.87c-0.37-0.37-0.66-0.8-0.87-1.29
			C16.18,21.59,16.07,21.07,16.07,20.5z M17.86,20.5c0,0.64,0.22,1.18,0.65,1.62c0.44,0.44,0.98,0.65,1.62,0.65
			c0.64,0,1.18-0.22,1.62-0.65c0.44-0.44,0.65-0.98,0.65-1.62s-0.22-1.18-0.65-1.62c-0.44-0.44-0.98-0.65-1.62-0.65
			c-0.64,0-1.18,0.22-1.62,0.65C18.08,19.32,17.86,19.86,17.86,20.5z M20.62,33.81l-1.38-0.71l10.21-16.98l1.38,0.71L20.62,33.81z
			 M25.8,29.45c0-0.57,0.11-1.09,0.32-1.58c0.21-0.49,0.5-0.92,0.87-1.29c0.37-0.37,0.8-0.66,1.29-0.87
			c0.49-0.21,1.02-0.32,1.58-0.32c0.57,0,1.09,0.11,1.58,0.32c0.49,0.21,0.92,0.5,1.29,0.87c0.37,0.37,0.66,0.8,0.87,1.29
			c0.21,0.49,0.32,1.02,0.32,1.58c0,0.57-0.11,1.09-0.32,1.58c-0.22,0.49-0.51,0.92-0.87,1.29c-0.37,0.37-0.8,0.66-1.29,0.87
			c-0.49,0.21-1.02,0.32-1.58,0.32c-0.57,0-1.09-0.11-1.58-0.32c-0.49-0.21-0.92-0.51-1.29-0.87c-0.37-0.37-0.66-0.8-0.87-1.29
			C25.91,30.54,25.8,30.01,25.8,29.45z M27.59,29.45c0,0.64,0.22,1.18,0.65,1.62c0.44,0.44,0.98,0.65,1.62,0.65
			c0.64,0,1.18-0.22,1.62-0.65c0.44-0.44,0.65-0.98,0.65-1.62s-0.22-1.18-0.65-1.62c-0.44-0.44-0.98-0.65-1.62-0.65
			c-0.64,0-1.18,0.22-1.62,0.65C27.81,28.27,27.59,28.81,27.59,29.45z"/>
	</g>
	<path d="M25,44.81l-6.29-3.15l-6.84-1.63l-2.79-6.46l-4.2-5.64l2.01-6.74l0.41-7.02l5.87-3.87l4.83-5.11L25,6l6.99-0.81l4.83,5.11
		l5.87,3.87l0.41,7.02l2.01,6.74l-4.2,5.64l-2.79,6.46l-6.84,1.63L25,44.81z M13.47,38.12l6.12,1.49l5.4,2.71l5.65-2.8l5.88-1.4
		l2.53-5.77l3.61-4.85l-1.77-6.05l-0.36-6.03l-5.24-3.49l-4.15-4.39L25,8.25l-6.13-0.71l-4.35,4.56l-5.05,3.33l-0.4,6.29L7.34,27.5
		l3.73,5.07L13.47,38.12z"/>
</g>
</svg>
