<?xml version="1.0" encoding="utf-8"?>
<!-- Generator: Adobe Illustrator 24.1.2, SVG Export Plug-In . SVG Version: 6.00 Build 0)  -->
<svg version="1.1" id="Capa_1" xmlns="http://www.w3.org/2000/svg" xmlns:xlink="http://www.w3.org/1999/xlink" x="0px" y="0px"
	 viewBox="0 0 50 50" style="enable-background:new 0 0 50 50;" xml:space="preserve">
<g>
	<path d="M25,44.01C14.52,44.01,5.99,35.48,5.99,25S14.52,5.99,25,5.99S44.01,14.52,44.01,25S35.48,44.01,25,44.01z M25,8.23
		C15.75,8.23,8.23,15.75,8.23,25S15.75,41.77,25,41.77c9.25,0,16.77-7.52,16.77-16.77S34.25,8.23,25,8.23z"/>
	<path d="M30.61,31.73c-0.29,0-0.57-0.11-0.79-0.33l-5.61-5.61C24,25.58,23.88,25.3,23.88,25V11.89c0-0.62,0.5-1.12,1.12-1.12
		s1.12,0.5,1.12,1.12v12.65l5.29,5.29c0.44,0.44,0.44,1.14,0,1.58C31.18,31.62,30.9,31.73,30.61,31.73z"/>
</g>
</svg>
