<?xml version="1.0" encoding="utf-8"?>
<!-- Generator: Adobe Illustrator 24.1.2, SVG Export Plug-In . SVG Version: 6.00 Build 0)  -->
<svg version="1.1" id="Capa_1" xmlns="http://www.w3.org/2000/svg" xmlns:xlink="http://www.w3.org/1999/xlink" x="0px" y="0px"
	 viewBox="0 0 50 50" style="enable-background:new 0 0 50 50;" xml:space="preserve">
<g>
	<path d="M25,8.73c8.97,0,16.27,7.3,16.27,16.27S33.97,41.27,25,41.27c-8.97,0-16.27-7.3-16.27-16.27S16.03,8.73,25,8.73 M25,6.84
		C14.97,6.84,6.84,14.97,6.84,25S14.97,43.16,25,43.16c10.03,0,18.16-8.13,18.16-18.16S35.03,6.84,25,6.84L25,6.84z"/>
	<path d="M33.71,32.68l-5.18-5.18c2.47-3,2.05-7.43-0.95-9.9s-7.43-2.05-9.9,0.95s-2.05,7.43,0.95,9.9c2.54,2.1,6.2,2.15,8.8,0.12
		l5.2,5.23c0.15,0.14,0.34,0.22,0.54,0.23c0.43,0,0.77-0.35,0.77-0.77c0-0.2-0.08-0.4-0.23-0.54L33.71,32.68z M17.73,23.09
		c0-2.99,2.42-5.42,5.42-5.42c2.99,0,5.42,2.42,5.42,5.42c0,2.99-2.42,5.42-5.42,5.42c0,0,0,0-0.01,0
		C20.15,28.5,17.73,26.08,17.73,23.09z"/>
</g>
</svg>
