<?xml version="1.0" encoding="utf-8"?>
<!-- Generator: Adobe Illustrator 24.1.2, SVG Export Plug-In . SVG Version: 6.00 Build 0)  -->
<svg version="1.1" id="Capa_1" xmlns="http://www.w3.org/2000/svg" xmlns:xlink="http://www.w3.org/1999/xlink" x="0px" y="0px"
	 viewBox="0 0 50 50" style="enable-background:new 0 0 50 50;" xml:space="preserve">
<g>
	<path d="M25,43.16c-8.48,0-15.38-6.9-15.38-15.38c0-6.45,4.07-12.26,10.13-14.46c0.58-0.21,1.22,0.09,1.43,0.67
		c0.21,0.58-0.09,1.22-0.67,1.43c-5.18,1.88-8.66,6.85-8.66,12.36c0,7.25,5.9,13.15,13.15,13.15s13.15-5.9,13.15-13.15
		c0-5.52-3.48-10.48-8.66-12.36c-0.58-0.21-0.88-0.85-0.67-1.43c0.21-0.58,0.86-0.88,1.43-0.67c6.06,2.2,10.13,8.01,10.13,14.46
		C40.38,36.26,33.48,43.16,25,43.16z"/>
	<path d="M25,28.89c-0.62,0-1.12-0.5-1.12-1.12V7.96c0-0.62,0.5-1.12,1.12-1.12s1.12,0.5,1.12,1.12v19.82
		C26.12,28.39,25.62,28.89,25,28.89z"/>
</g>
</svg>
