<?xml version="1.0" encoding="utf-8"?>
<!-- Generator: Adobe Illustrator 24.1.2, SVG Export Plug-In . SVG Version: 6.00 Build 0)  -->
<svg version="1.1" id="Capa_1" xmlns="http://www.w3.org/2000/svg" xmlns:xlink="http://www.w3.org/1999/xlink" x="0px" y="0px"
	 viewBox="0 0 50 50" style="enable-background:new 0 0 50 50;" xml:space="preserve">
<path d="M14.35,43.29c-0.39,0-0.78-0.12-1.12-0.36c-0.59-0.43-0.88-1.15-0.76-1.87l1.86-10.87l-7.9-7.7
	c-0.52-0.51-0.71-1.26-0.48-1.95s0.82-1.19,1.54-1.3l10.91-1.58l4.88-9.89c0.32-0.66,1.03-1.05,1.71-1.06
	c0.73,0,1.39,0.41,1.71,1.06l4.88,9.89l10.91,1.58c0.72,0.1,1.31,0.6,1.54,1.3c0.23,0.7,0.04,1.44-0.48,1.95l-7.9,7.7l1.86,10.87
	c0.12,0.72-0.17,1.44-0.76,1.87c-0.59,0.43-1.36,0.48-2.01,0.14L25,37.94l-9.76,5.13C14.96,43.22,14.65,43.29,14.35,43.29z
	 M25.89,35.89l9.32,4.9L33.43,30.4c-0.11-0.62,0.1-1.25,0.55-1.69l7.54-7.35L31.1,19.85c-0.62-0.09-1.16-0.48-1.44-1.05L25,9.35
	l-4.66,9.45c-0.28,0.56-0.82,0.95-1.44,1.04L8.48,21.36l7.54,7.35c0.45,0.44,0.65,1.07,0.55,1.69l-1.78,10.38l9.33-4.9
	C24.66,35.59,25.33,35.59,25.89,35.89L25.89,35.89z M25.16,37.86L25.16,37.86C25.16,37.86,25.16,37.86,25.16,37.86z"/>
</svg>
