<?xml version="1.0" encoding="utf-8"?>
<!-- Generator: Adobe Illustrator 24.1.2, SVG Export Plug-In . SVG Version: 6.00 Build 0)  -->
<svg version="1.1" id="Capa_1" xmlns="http://www.w3.org/2000/svg" xmlns:xlink="http://www.w3.org/1999/xlink" x="0px" y="0px"
	 viewBox="0 0 50 50" style="enable-background:new 0 0 50 50;" xml:space="preserve">
<path d="M39.9,36.09c-1.03-5.82-5.3-10.3-10.76-11.86c2.11-1.36,3.52-3.73,3.52-6.42c0-4.22-3.44-7.66-7.66-7.66
	s-7.66,3.44-7.66,7.66c0,2.7,1.41,5.06,3.52,6.42c-5.46,1.55-9.73,6.03-10.76,11.86c-0.16,0.92,0.09,1.86,0.7,2.58
	c0.63,0.75,1.54,1.17,2.51,1.17h23.37c0.97,0,1.88-0.43,2.51-1.17C39.8,37.95,40.06,37.01,39.9,36.09z M19.58,17.81
	c0-2.99,2.43-5.43,5.42-5.43s5.42,2.43,5.42,5.43s-2.43,5.42-5.42,5.42S19.58,20.8,19.58,17.81z M37.48,37.24
	c-0.2,0.24-0.49,0.38-0.8,0.38H13.31c-0.31,0-0.6-0.14-0.8-0.38c-0.11-0.13-0.28-0.39-0.21-0.76c1.09-6.17,6.43-10.64,12.7-10.64
	s11.61,4.47,12.7,10.64C37.76,36.84,37.59,37.11,37.48,37.24z"/>
</svg>
